<?xml version="1.0" encoding="UTF-8"?>
<svg xmlns="http://www.w3.org/2000/svg" version="1.1" width="100" height="100" viewBox="0 0 100 100"><rect x="0" y="0" width="100" height="100" fill="#ffffff"/><g transform="scale(2.041)"><g transform="translate(0,0)"><path fill-rule="evenodd" d="M8 0L8 1L10 1L10 2L11 2L11 3L9 3L9 2L8 2L8 5L9 5L9 6L8 6L8 7L9 7L9 6L10 6L10 7L11 7L11 6L12 6L12 8L11 8L11 10L10 10L10 9L9 9L9 8L8 8L8 10L6 10L6 11L5 11L5 12L2 12L2 13L1 13L1 12L0 12L0 13L1 13L1 14L0 14L0 18L1 18L1 17L2 17L2 16L3 16L3 18L2 18L2 20L1 20L1 19L0 19L0 22L1 22L1 25L2 25L2 26L1 26L1 27L0 27L0 30L1 30L1 29L2 29L2 28L3 28L3 29L4 29L4 30L2 30L2 32L1 32L1 31L0 31L0 32L1 32L1 35L0 35L0 38L1 38L1 40L0 40L0 41L3 41L3 40L4 40L4 39L2 39L2 38L3 38L3 37L2 37L2 36L1 36L1 35L3 35L3 36L5 36L5 37L4 37L4 38L5 38L5 39L7 39L7 40L6 40L6 41L7 41L7 40L8 40L8 42L9 42L9 43L10 43L10 41L11 41L11 40L10 40L10 37L11 37L11 39L12 39L12 41L14 41L14 42L15 42L15 43L13 43L13 46L12 46L12 45L11 45L11 44L12 44L12 43L11 43L11 44L10 44L10 45L8 45L8 49L9 49L9 48L10 48L10 46L11 46L11 48L14 48L14 47L15 47L15 49L17 49L17 48L16 48L16 47L18 47L18 49L22 49L22 48L23 48L23 49L24 49L24 48L25 48L25 49L28 49L28 48L26 48L26 47L24 47L24 48L23 48L23 47L22 47L22 46L21 46L21 47L18 47L18 46L19 46L19 45L23 45L23 46L24 46L24 45L26 45L26 46L27 46L27 45L29 45L29 46L28 46L28 47L29 47L29 48L30 48L30 47L31 47L31 49L32 49L32 48L34 48L34 49L37 49L37 48L38 48L38 47L37 47L37 46L38 46L38 45L39 45L39 44L40 44L40 46L41 46L41 47L39 47L39 49L41 49L41 48L42 48L42 46L43 46L43 49L45 49L45 47L46 47L46 49L49 49L49 48L47 48L47 47L49 47L49 46L48 46L48 45L49 45L49 41L48 41L48 40L49 40L49 39L48 39L48 38L49 38L49 35L48 35L48 33L49 33L49 29L48 29L48 28L45 28L45 27L46 27L46 26L45 26L45 23L46 23L46 25L47 25L47 23L46 23L46 22L47 22L47 21L46 21L46 19L47 19L47 20L48 20L48 19L49 19L49 17L47 17L47 16L46 16L46 14L45 14L45 13L43 13L43 14L42 14L42 13L41 13L41 12L40 12L40 11L41 11L41 10L40 10L40 8L41 8L41 9L42 9L42 11L43 11L43 12L46 12L46 13L47 13L47 15L48 15L48 14L49 14L49 11L48 11L48 9L49 9L49 8L48 8L48 9L47 9L47 8L44 8L44 9L42 9L42 8L41 8L41 6L40 6L40 7L39 7L39 5L38 5L38 2L39 2L39 4L40 4L40 3L41 3L41 0L40 0L40 1L38 1L38 0L37 0L37 1L38 1L38 2L36 2L36 1L34 1L34 3L35 3L35 6L34 6L34 7L33 7L33 5L34 5L34 4L31 4L31 5L30 5L30 4L29 4L29 5L27 5L27 4L26 4L26 3L25 3L25 2L26 2L26 1L25 1L25 0L23 0L23 1L22 1L22 3L21 3L21 1L20 1L20 0L19 0L19 2L18 2L18 1L17 1L17 2L16 2L16 1L15 1L15 0L12 0L12 1L11 1L11 0ZM28 0L28 1L29 1L29 0ZM30 0L30 2L31 2L31 3L33 3L33 0L32 0L32 2L31 2L31 0ZM14 1L14 2L15 2L15 5L14 5L14 4L13 4L13 3L11 3L11 4L13 4L13 5L12 5L12 6L13 6L13 9L12 9L12 10L11 10L11 12L10 12L10 11L9 11L9 12L8 12L8 11L6 11L6 12L7 12L7 13L6 13L6 14L5 14L5 16L4 16L4 18L3 18L3 20L4 20L4 18L5 18L5 16L9 16L9 17L10 17L10 16L12 16L12 15L11 15L11 14L13 14L13 15L14 15L14 16L15 16L15 17L16 17L16 15L17 15L17 18L16 18L16 19L13 19L13 18L12 18L12 19L13 19L13 21L12 21L12 20L11 20L11 19L10 19L10 18L9 18L9 19L10 19L10 20L9 20L9 21L8 21L8 17L6 17L6 18L7 18L7 19L5 19L5 21L4 21L4 22L9 22L9 24L10 24L10 26L9 26L9 27L5 27L5 28L4 28L4 29L5 29L5 30L7 30L7 31L3 31L3 32L2 32L2 33L4 33L4 34L3 34L3 35L4 35L4 34L5 34L5 36L8 36L8 34L9 34L9 33L8 33L8 32L7 32L7 31L8 31L8 30L9 30L9 31L10 31L10 34L11 34L11 31L13 31L13 30L15 30L15 29L16 29L16 30L18 30L18 31L17 31L17 32L16 32L16 33L15 33L15 31L14 31L14 32L12 32L12 33L13 33L13 34L12 34L12 35L13 35L13 34L14 34L14 35L15 35L15 38L14 38L14 37L12 37L12 39L13 39L13 38L14 38L14 40L15 40L15 42L16 42L16 43L17 43L17 45L19 45L19 43L21 43L21 44L22 44L22 43L21 43L21 42L22 42L22 40L21 40L21 39L19 39L19 40L18 40L18 41L17 41L17 42L16 42L16 40L17 40L17 39L16 39L16 40L15 40L15 38L17 38L17 36L18 36L18 38L20 38L20 36L21 36L21 35L20 35L20 34L21 34L21 33L22 33L22 37L21 37L21 38L22 38L22 37L23 37L23 36L24 36L24 38L23 38L23 39L25 39L25 40L26 40L26 39L27 39L27 41L29 41L29 42L30 42L30 45L31 45L31 47L32 47L32 46L34 46L34 48L35 48L35 47L36 47L36 48L37 48L37 47L36 47L36 45L37 45L37 44L38 44L38 43L37 43L37 42L36 42L36 41L38 41L38 42L39 42L39 41L40 41L40 39L37 39L37 38L38 38L38 37L39 37L39 36L38 36L38 35L40 35L40 34L39 34L39 33L41 33L41 36L40 36L40 38L41 38L41 39L42 39L42 40L45 40L45 41L46 41L46 42L45 42L45 43L46 43L46 44L45 44L45 46L46 46L46 47L47 47L47 46L46 46L46 45L48 45L48 44L47 44L47 43L48 43L48 41L46 41L46 40L48 40L48 39L47 39L47 38L48 38L48 35L47 35L47 33L48 33L48 29L47 29L47 30L46 30L46 29L43 29L43 30L44 30L44 31L43 31L43 32L42 32L42 29L41 29L41 28L43 28L43 27L38 27L38 25L39 25L39 26L40 26L40 25L39 25L39 24L40 24L40 22L42 22L42 20L41 20L41 18L42 18L42 19L43 19L43 21L44 21L44 22L46 22L46 21L45 21L45 18L46 18L46 16L45 16L45 17L44 17L44 16L43 16L43 17L42 17L42 15L40 15L40 16L39 16L39 15L35 15L35 14L36 14L36 13L35 13L35 12L36 12L36 11L37 11L37 10L38 10L38 12L39 12L39 11L40 11L40 10L39 10L39 8L38 8L38 5L37 5L37 8L36 8L36 6L35 6L35 7L34 7L34 8L36 8L36 11L34 11L34 10L35 10L35 9L33 9L33 7L32 7L32 6L31 6L31 7L30 7L30 5L29 5L29 7L30 7L30 8L29 8L29 9L28 9L28 8L27 8L27 9L26 9L26 10L24 10L24 9L23 9L23 10L24 10L24 11L23 11L23 12L24 12L24 11L27 11L27 15L26 15L26 12L25 12L25 13L24 13L24 14L23 14L23 13L21 13L21 14L19 14L19 15L17 15L17 14L18 14L18 11L17 11L17 10L19 10L19 7L20 7L20 6L21 6L21 7L22 7L22 4L24 4L24 3L22 3L22 4L21 4L21 5L20 5L20 3L19 3L19 5L20 5L20 6L19 6L19 7L18 7L18 6L17 6L17 7L16 7L16 6L15 6L15 5L18 5L18 2L17 2L17 3L16 3L16 2L15 2L15 1ZM24 1L24 2L25 2L25 1ZM35 2L35 3L36 3L36 2ZM23 5L23 8L26 8L26 5ZM14 6L14 8L15 8L15 6ZM24 6L24 7L25 7L25 6ZM27 6L27 7L28 7L28 6ZM17 7L17 8L18 8L18 7ZM31 7L31 9L30 9L30 11L29 11L29 12L30 12L30 13L28 13L28 16L29 16L29 17L28 17L28 18L29 18L29 19L28 19L28 21L27 21L27 18L25 18L25 17L27 17L27 16L26 16L26 15L25 15L25 17L24 17L24 15L23 15L23 14L22 14L22 15L20 15L20 16L21 16L21 20L20 20L20 18L19 18L19 17L18 17L18 19L19 19L19 22L20 22L20 21L21 21L21 22L22 22L22 24L20 24L20 23L18 23L18 20L14 20L14 21L15 21L15 22L11 22L11 21L9 21L9 22L10 22L10 23L11 23L11 24L13 24L13 25L12 25L12 26L10 26L10 27L9 27L9 28L6 28L6 29L7 29L7 30L8 30L8 29L9 29L9 28L10 28L10 29L11 29L11 30L13 30L13 29L12 29L12 28L14 28L14 29L15 29L15 28L14 28L14 26L15 26L15 27L17 27L17 29L18 29L18 28L20 28L20 27L21 27L21 28L22 28L22 29L25 29L25 30L24 30L24 31L26 31L26 29L27 29L27 26L28 26L28 28L31 28L31 31L30 31L30 32L29 32L29 31L28 31L28 30L27 30L27 32L24 32L24 33L23 33L23 30L22 30L22 33L23 33L23 34L24 34L24 35L25 35L25 34L26 34L26 36L27 36L27 37L25 37L25 38L27 38L27 39L28 39L28 40L29 40L29 41L30 41L30 40L31 40L31 41L33 41L33 42L35 42L35 41L36 41L36 40L35 40L35 41L33 41L33 39L32 39L32 38L33 38L33 37L37 37L37 35L38 35L38 34L37 34L37 35L36 35L36 34L34 34L34 35L35 35L35 36L33 36L33 34L31 34L31 33L32 33L32 32L31 32L31 31L33 31L33 33L35 33L35 32L37 32L37 33L38 33L38 32L41 32L41 30L38 30L38 29L35 29L35 28L36 28L36 27L37 27L37 26L36 26L36 25L37 25L37 24L38 24L38 23L36 23L36 25L35 25L35 28L34 28L34 27L32 27L32 26L30 26L30 24L29 24L29 23L32 23L32 24L33 24L33 26L34 26L34 24L35 24L35 22L34 22L34 21L36 21L36 22L37 22L37 21L38 21L38 20L37 20L37 21L36 21L36 20L34 20L34 19L35 19L35 17L34 17L34 15L32 15L32 17L31 17L31 14L34 14L34 13L32 13L32 12L34 12L34 11L33 11L33 9L32 9L32 7ZM0 8L0 9L1 9L1 10L0 10L0 11L1 11L1 10L2 10L2 11L3 11L3 9L4 9L4 10L5 10L5 9L4 9L4 8ZM6 8L6 9L7 9L7 8ZM37 8L37 9L38 9L38 8ZM14 9L14 11L15 11L15 13L13 13L13 11L12 11L12 13L13 13L13 14L17 14L17 13L16 13L16 12L17 12L17 11L15 11L15 9ZM20 9L20 10L21 10L21 11L20 11L20 12L19 12L19 13L20 13L20 12L21 12L21 11L22 11L22 9ZM31 9L31 12L32 12L32 9ZM44 9L44 10L43 10L43 11L44 11L44 10L45 10L45 9ZM46 10L46 11L47 11L47 13L48 13L48 11L47 11L47 10ZM3 13L3 14L2 14L2 15L1 15L1 16L2 16L2 15L4 15L4 13ZM30 13L30 14L29 14L29 16L30 16L30 14L31 14L31 13ZM40 13L40 14L41 14L41 13ZM6 14L6 15L7 15L7 14ZM43 14L43 15L45 15L45 14ZM22 15L22 16L23 16L23 15ZM38 16L38 17L36 17L36 19L39 19L39 20L40 20L40 18L41 18L41 16L40 16L40 18L38 18L38 17L39 17L39 16ZM23 17L23 18L22 18L22 20L21 20L21 21L22 21L22 22L24 22L24 21L25 21L25 22L27 22L27 23L28 23L28 22L27 22L27 21L25 21L25 20L26 20L26 19L25 19L25 18L24 18L24 17ZM29 17L29 18L30 18L30 20L29 20L29 21L30 21L30 20L31 20L31 22L33 22L33 23L34 23L34 22L33 22L33 19L34 19L34 18L33 18L33 19L32 19L32 18L31 18L31 17ZM43 17L43 19L44 19L44 17ZM23 18L23 19L24 19L24 20L23 20L23 21L24 21L24 20L25 20L25 19L24 19L24 18ZM47 18L47 19L48 19L48 18ZM6 20L6 21L7 21L7 20ZM2 21L2 22L3 22L3 21ZM16 21L16 23L14 23L14 25L16 25L16 26L17 26L17 25L16 25L16 23L17 23L17 21ZM2 23L2 25L3 25L3 26L2 26L2 27L4 27L4 25L3 25L3 23ZM5 23L5 26L8 26L8 23ZM23 23L23 26L26 26L26 23ZM41 23L41 26L44 26L44 23ZM48 23L48 26L49 26L49 23ZM6 24L6 25L7 25L7 24ZM19 24L19 25L20 25L20 24ZM24 24L24 25L25 25L25 24ZM27 24L27 25L28 25L28 26L29 26L29 27L30 27L30 26L29 26L29 24ZM42 24L42 25L43 25L43 24ZM21 25L21 26L22 26L22 25ZM19 26L19 27L20 27L20 26ZM23 27L23 28L25 28L25 29L26 29L26 28L25 28L25 27ZM31 27L31 28L32 28L32 27ZM33 28L33 31L34 31L34 32L35 32L35 31L36 31L36 30L35 30L35 31L34 31L34 28ZM19 29L19 30L20 30L20 29ZM29 29L29 30L30 30L30 29ZM37 30L37 32L38 32L38 30ZM45 30L45 31L44 31L44 32L43 32L43 36L42 36L42 37L41 37L41 38L43 38L43 37L44 37L44 38L46 38L46 37L45 37L45 36L47 36L47 35L45 35L45 34L44 34L44 33L46 33L46 32L45 32L45 31L46 31L46 30ZM18 31L18 32L17 32L17 33L18 33L18 32L19 32L19 34L18 34L18 36L20 36L20 35L19 35L19 34L20 34L20 33L21 33L21 32L20 32L20 31ZM4 32L4 33L5 33L5 34L6 34L6 35L7 35L7 34L8 34L8 33L7 33L7 32ZM27 32L27 33L26 33L26 34L27 34L27 36L28 36L28 37L27 37L27 38L28 38L28 39L29 39L29 40L30 40L30 38L31 38L31 37L29 37L29 35L30 35L30 33L31 33L31 32L30 32L30 33L28 33L28 32ZM6 33L6 34L7 34L7 33ZM14 33L14 34L15 34L15 33ZM16 34L16 36L17 36L17 34ZM9 35L9 36L10 36L10 35ZM44 35L44 36L45 36L45 35ZM32 36L32 37L33 37L33 36ZM6 37L6 38L7 38L7 39L8 39L8 40L9 40L9 41L10 41L10 40L9 40L9 37ZM45 39L45 40L46 40L46 39ZM20 40L20 41L21 41L21 40ZM38 40L38 41L39 41L39 40ZM18 41L18 43L19 43L19 41ZM23 41L23 44L26 44L26 41ZM41 41L41 44L44 44L44 41ZM24 42L24 43L25 43L25 42ZM27 42L27 44L28 44L28 42ZM42 42L42 43L43 43L43 42ZM46 42L46 43L47 43L47 42ZM35 43L35 45L36 45L36 44L37 44L37 43ZM14 44L14 46L15 46L15 47L16 47L16 44ZM43 45L43 46L44 46L44 45ZM21 47L21 48L22 48L22 47ZM0 0L0 7L7 7L7 0ZM1 1L1 6L6 6L6 1ZM2 2L2 5L5 5L5 2ZM42 0L42 7L49 7L49 0ZM43 1L43 6L48 6L48 1ZM44 2L44 5L47 5L47 2ZM0 42L0 49L7 49L7 42ZM1 43L1 48L6 48L6 43ZM2 44L2 47L5 47L5 44Z" fill="#000000"/></g></g></svg>
