<?xml version="1.0" encoding="UTF-8"?>
<svg xmlns="http://www.w3.org/2000/svg" version="1.1" width="100" height="100" viewBox="0 0 100 100"><rect x="0" y="0" width="100" height="100" fill="#ffffff"/><g transform="scale(2.041)"><g transform="translate(0,0)"><path fill-rule="evenodd" d="M9 0L9 2L10 2L10 3L8 3L8 5L9 5L9 6L8 6L8 7L9 7L9 8L12 8L12 9L13 9L13 10L14 10L14 7L15 7L15 6L16 6L16 7L17 7L17 8L15 8L15 11L16 11L16 10L17 10L17 9L19 9L19 10L18 10L18 11L19 11L19 12L14 12L14 11L13 11L13 13L12 13L12 11L11 11L11 10L9 10L9 9L8 9L8 8L5 8L5 9L2 9L2 8L0 8L0 9L2 9L2 10L1 10L1 11L0 11L0 14L1 14L1 17L0 17L0 19L1 19L1 18L2 18L2 20L1 20L1 21L0 21L0 23L2 23L2 22L3 22L3 21L5 21L5 22L4 22L4 23L3 23L3 24L2 24L2 25L1 25L1 24L0 24L0 28L2 28L2 29L1 29L1 30L3 30L3 28L4 28L4 30L5 30L5 31L4 31L4 32L2 32L2 33L1 33L1 34L0 34L0 37L2 37L2 38L1 38L1 40L0 40L0 41L3 41L3 40L4 40L4 39L2 39L2 38L5 38L5 39L7 39L7 38L9 38L9 39L8 39L8 44L9 44L9 47L8 47L8 49L9 49L9 47L10 47L10 46L12 46L12 45L13 45L13 46L15 46L15 48L14 48L14 47L13 47L13 48L14 48L14 49L16 49L16 48L17 48L17 49L19 49L19 47L18 47L18 46L21 46L21 47L22 47L22 48L21 48L21 49L23 49L23 47L25 47L25 46L24 46L24 45L26 45L26 47L27 47L27 49L31 49L31 48L32 48L32 49L42 49L42 48L43 48L43 47L44 47L44 48L45 48L45 49L46 49L46 48L45 48L45 47L47 47L47 46L48 46L48 45L49 45L49 44L48 44L48 45L47 45L47 44L46 44L46 43L45 43L45 42L47 42L47 43L49 43L49 42L48 42L48 41L49 41L49 40L48 40L48 41L47 41L47 39L49 39L49 38L48 38L48 36L46 36L46 34L47 34L47 32L48 32L48 31L49 31L49 30L47 30L47 26L48 26L48 27L49 27L49 26L48 26L48 25L49 25L49 24L47 24L47 26L46 26L46 27L45 27L45 25L46 25L46 24L45 24L45 21L44 21L44 20L46 20L46 23L49 23L49 22L47 22L47 20L46 20L46 18L45 18L45 19L44 19L44 16L45 16L45 15L46 15L46 17L47 17L47 19L49 19L49 18L48 18L48 17L49 17L49 16L47 16L47 15L49 15L49 14L45 14L45 15L44 15L44 13L45 13L45 12L46 12L46 11L44 11L44 10L45 10L45 9L46 9L46 8L44 8L44 10L43 10L43 9L42 9L42 10L41 10L41 6L40 6L40 7L39 7L39 5L38 5L38 3L34 3L34 2L35 2L35 0L34 0L34 1L33 1L33 2L32 2L32 4L30 4L30 5L32 5L32 8L33 8L33 10L32 10L32 11L31 11L31 12L30 12L30 10L31 10L31 9L30 9L30 10L29 10L29 9L28 9L28 8L29 8L29 6L28 6L28 4L29 4L29 2L30 2L30 3L31 3L31 2L30 2L30 1L32 1L32 0L29 0L29 2L27 2L27 1L28 1L28 0L24 0L24 2L23 2L23 0L22 0L22 2L21 2L21 3L22 3L22 4L21 4L21 5L22 5L22 7L21 7L21 6L20 6L20 4L19 4L19 2L20 2L20 1L21 1L21 0L20 0L20 1L18 1L18 0L16 0L16 1L17 1L17 2L18 2L18 4L19 4L19 6L18 6L18 7L17 7L17 6L16 6L16 4L17 4L17 3L15 3L15 1L14 1L14 0L12 0L12 1L13 1L13 2L14 2L14 3L12 3L12 2L10 2L10 1L11 1L11 0ZM40 0L40 1L38 1L38 2L39 2L39 4L40 4L40 3L41 3L41 0ZM36 1L36 2L37 2L37 1ZM22 2L22 3L23 3L23 4L24 4L24 3L25 3L25 2L24 2L24 3L23 3L23 2ZM26 2L26 3L27 3L27 2ZM10 3L10 4L9 4L9 5L11 5L11 7L12 7L12 8L13 8L13 7L14 7L14 6L15 6L15 3L14 3L14 4L13 4L13 7L12 7L12 4L11 4L11 3ZM32 4L32 5L33 5L33 8L37 8L37 9L35 9L35 13L34 13L34 12L33 12L33 13L32 13L32 12L31 12L31 13L32 13L32 16L31 16L31 18L30 18L30 15L31 15L31 14L30 14L30 13L29 13L29 14L28 14L28 11L29 11L29 10L28 10L28 9L27 9L27 11L26 11L26 10L25 10L25 9L22 9L22 8L21 8L21 9L22 9L22 10L24 10L24 11L22 11L22 13L21 13L21 12L20 12L20 14L19 14L19 13L18 13L18 15L16 15L16 16L14 16L14 15L15 15L15 13L14 13L14 15L12 15L12 13L10 13L10 12L11 12L11 11L9 11L9 10L8 10L8 9L5 9L5 10L8 10L8 11L9 11L9 13L10 13L10 14L9 14L9 16L8 16L8 17L9 17L9 16L11 16L11 15L12 15L12 16L14 16L14 17L13 17L13 20L12 20L12 19L11 19L11 17L10 17L10 18L8 18L8 19L6 19L6 18L7 18L7 17L6 17L6 18L5 18L5 16L7 16L7 15L6 15L6 14L8 14L8 12L7 12L7 11L6 11L6 12L7 12L7 13L6 13L6 14L5 14L5 13L4 13L4 12L5 12L5 11L4 11L4 12L3 12L3 10L2 10L2 13L1 13L1 14L3 14L3 18L5 18L5 20L7 20L7 21L6 21L6 22L7 22L7 21L8 21L8 22L9 22L9 21L8 21L8 20L10 20L10 19L11 19L11 21L12 21L12 22L11 22L11 24L10 24L10 25L9 25L9 27L5 27L5 29L6 29L6 30L7 30L7 29L6 29L6 28L8 28L8 29L9 29L9 31L6 31L6 32L7 32L7 33L2 33L2 34L1 34L1 36L4 36L4 37L5 37L5 38L7 38L7 37L6 37L6 36L8 36L8 37L10 37L10 36L11 36L11 38L10 38L10 39L9 39L9 40L10 40L10 42L12 42L12 41L13 41L13 42L14 42L14 41L15 41L15 42L16 42L16 43L14 43L14 44L13 44L13 45L15 45L15 44L16 44L16 46L18 46L18 44L17 44L17 43L19 43L19 44L20 44L20 45L21 45L21 44L22 44L22 43L20 43L20 42L22 42L22 41L15 41L15 40L16 40L16 39L17 39L17 37L18 37L18 40L28 40L28 41L27 41L27 45L29 45L29 44L30 44L30 43L31 43L31 44L32 44L32 45L31 45L31 46L29 46L29 48L30 48L30 47L32 47L32 48L33 48L33 47L34 47L34 48L35 48L35 47L34 47L34 46L32 46L32 45L33 45L33 44L37 44L37 45L38 45L38 44L39 44L39 40L38 40L38 38L39 38L39 37L37 37L37 43L35 43L35 42L36 42L36 41L35 41L35 40L33 40L33 38L35 38L35 39L36 39L36 38L35 38L35 37L36 37L36 36L37 36L37 34L38 34L38 33L39 33L39 34L43 34L43 33L44 33L44 32L45 32L45 33L46 33L46 32L47 32L47 31L46 31L46 30L45 30L45 29L46 29L46 28L45 28L45 27L44 27L44 28L45 28L45 29L43 29L43 30L45 30L45 31L42 31L42 32L41 32L41 33L39 33L39 31L41 31L41 29L42 29L42 28L43 28L43 27L41 27L41 28L40 28L40 30L39 30L39 29L38 29L38 27L36 27L36 26L39 26L39 27L40 27L40 25L34 25L34 24L40 24L40 23L38 23L38 21L39 21L39 20L41 20L41 22L42 22L42 21L43 21L43 20L44 20L44 19L43 19L43 18L42 18L42 17L43 17L43 16L42 16L42 15L43 15L43 14L42 14L42 13L43 13L43 12L44 12L44 11L43 11L43 10L42 10L42 11L40 11L40 9L39 9L39 11L36 11L36 10L38 10L38 8L37 8L37 7L38 7L38 6L37 6L37 4ZM23 5L23 8L26 8L26 5ZM34 5L34 7L35 7L35 6L36 6L36 7L37 7L37 6L36 6L36 5ZM9 6L9 7L10 7L10 6ZM19 6L19 9L20 9L20 6ZM24 6L24 7L25 7L25 6ZM27 6L27 7L28 7L28 6ZM30 6L30 8L31 8L31 6ZM47 9L47 10L48 10L48 12L47 12L47 13L49 13L49 10L48 10L48 9ZM20 10L20 11L21 11L21 10ZM42 11L42 12L41 12L41 13L42 13L42 12L43 12L43 11ZM24 12L24 15L25 15L25 16L24 16L24 17L23 17L23 15L22 15L22 14L20 14L20 17L19 17L19 15L18 15L18 17L19 17L19 18L20 18L20 17L21 17L21 20L20 20L20 19L19 19L19 20L18 20L18 21L16 21L16 22L17 22L17 23L18 23L18 21L19 21L19 20L20 20L20 22L21 22L21 23L19 23L19 24L18 24L18 25L19 25L19 26L18 26L18 27L17 27L17 26L16 26L16 25L15 25L15 24L14 24L14 22L15 22L15 20L16 20L16 19L18 19L18 18L16 18L16 17L17 17L17 16L16 16L16 17L14 17L14 18L16 18L16 19L14 19L14 20L13 20L13 21L14 21L14 22L13 22L13 23L12 23L12 24L14 24L14 26L15 26L15 27L13 27L13 26L11 26L11 25L10 25L10 26L11 26L11 27L10 27L10 28L11 28L11 29L10 29L10 30L11 30L11 31L12 31L12 33L9 33L9 32L10 32L10 31L9 31L9 32L8 32L8 34L4 34L4 36L5 36L5 35L9 35L9 36L10 36L10 35L11 35L11 34L12 34L12 38L11 38L11 39L10 39L10 40L11 40L11 39L12 39L12 40L13 40L13 41L14 41L14 39L15 39L15 38L13 38L13 35L14 35L14 36L16 36L16 37L17 37L17 36L18 36L18 37L20 37L20 35L19 35L19 34L21 34L21 33L22 33L22 34L23 34L23 35L21 35L21 37L22 37L22 38L23 38L23 35L24 35L24 36L25 36L25 37L24 37L24 38L25 38L25 39L26 39L26 37L29 37L29 38L28 38L28 39L29 39L29 41L28 41L28 44L29 44L29 41L30 41L30 42L33 42L33 43L32 43L32 44L33 44L33 43L34 43L34 41L32 41L32 40L30 40L30 39L29 39L29 38L32 38L32 37L34 37L34 36L36 36L36 35L35 35L35 33L34 33L34 31L30 31L30 30L31 30L31 29L32 29L32 30L33 30L33 29L35 29L35 31L38 31L38 30L36 30L36 29L37 29L37 28L36 28L36 27L35 27L35 26L34 26L34 25L33 25L33 23L37 23L37 19L35 19L35 21L34 21L34 22L33 22L33 21L32 21L32 20L34 20L34 17L32 17L32 18L31 18L31 19L30 19L30 20L31 20L31 21L29 21L29 22L27 22L27 21L28 21L28 20L29 20L29 19L28 19L28 17L27 17L27 19L26 19L26 22L25 22L25 20L24 20L24 19L25 19L25 18L26 18L26 16L29 16L29 15L28 15L28 14L25 14L25 12ZM26 12L26 13L27 13L27 12ZM36 12L36 13L35 13L35 14L34 14L34 13L33 13L33 16L35 16L35 15L36 15L36 13L37 13L37 14L38 14L38 16L39 16L39 14L40 14L40 12L39 12L39 14L38 14L38 13L37 13L37 12ZM3 13L3 14L4 14L4 15L5 15L5 14L4 14L4 13ZM10 14L10 15L11 15L11 14ZM41 14L41 15L40 15L40 17L41 17L41 15L42 15L42 14ZM21 15L21 17L22 17L22 18L23 18L23 17L22 17L22 15ZM36 16L36 18L37 18L37 16ZM24 17L24 18L25 18L25 17ZM40 18L40 19L41 19L41 18ZM3 19L3 20L2 20L2 21L3 21L3 20L4 20L4 19ZM22 19L22 20L23 20L23 19ZM27 19L27 20L28 20L28 19ZM31 19L31 20L32 20L32 19ZM38 19L38 20L39 20L39 19ZM48 20L48 21L49 21L49 20ZM21 21L21 22L22 22L22 21ZM23 21L23 22L24 22L24 21ZM31 21L31 22L29 22L29 24L30 24L30 25L27 25L27 26L28 26L28 29L27 29L27 27L26 27L26 28L25 28L25 27L22 27L22 25L21 25L21 24L22 24L22 23L21 23L21 24L20 24L20 26L19 26L19 27L18 27L18 28L16 28L16 27L15 27L15 28L12 28L12 29L14 29L14 30L12 30L12 31L13 31L13 32L14 32L14 33L15 33L15 34L16 34L16 35L18 35L18 34L19 34L19 33L21 33L21 32L22 32L22 33L25 33L25 34L24 34L24 35L27 35L27 36L28 36L28 34L27 34L27 32L26 32L26 30L28 30L28 29L29 29L29 26L30 26L30 27L31 27L31 28L32 28L32 29L33 29L33 28L34 28L34 26L33 26L33 25L31 25L31 24L32 24L32 23L33 23L33 22L32 22L32 21ZM35 21L35 22L36 22L36 21ZM31 22L31 23L30 23L30 24L31 24L31 23L32 23L32 22ZM5 23L5 26L8 26L8 23ZM23 23L23 26L26 26L26 23ZM41 23L41 26L44 26L44 23ZM3 24L3 26L2 26L2 28L3 28L3 27L4 27L4 24ZM6 24L6 25L7 25L7 24ZM24 24L24 25L25 25L25 24ZM42 24L42 25L43 25L43 24ZM30 25L30 26L31 26L31 27L32 27L32 26L31 26L31 25ZM20 27L20 29L22 29L22 30L23 30L23 29L24 29L24 32L25 32L25 29L24 29L24 28L21 28L21 27ZM15 28L15 30L14 30L14 31L15 31L15 33L16 33L16 34L17 34L17 33L19 33L19 32L18 32L18 31L20 31L20 30L18 30L18 29L19 29L19 28L18 28L18 29L16 29L16 28ZM48 28L48 29L49 29L49 28ZM16 30L16 31L17 31L17 30ZM0 31L0 32L1 32L1 31ZM22 31L22 32L23 32L23 31ZM29 31L29 32L28 32L28 33L29 33L29 35L30 35L30 36L29 36L29 37L30 37L30 36L31 36L31 37L32 37L32 35L33 35L33 36L34 36L34 35L33 35L33 34L30 34L30 33L31 33L31 32L30 32L30 31ZM29 32L29 33L30 33L30 32ZM32 32L32 33L33 33L33 32ZM36 32L36 33L37 33L37 32ZM42 32L42 33L43 33L43 32ZM9 34L9 35L10 35L10 34ZM44 34L44 35L40 35L40 36L42 36L42 37L40 37L40 40L41 40L41 39L42 39L42 40L43 40L43 39L42 39L42 38L44 38L44 40L45 40L45 41L46 41L46 39L47 39L47 37L46 37L46 36L45 36L45 34ZM48 34L48 35L49 35L49 34ZM20 38L20 39L21 39L21 38ZM45 38L45 39L46 39L46 38ZM6 40L6 41L7 41L7 40ZM23 41L23 44L26 44L26 41ZM41 41L41 44L44 44L44 41ZM24 42L24 43L25 43L25 42ZM42 42L42 43L43 43L43 42ZM10 44L10 45L12 45L12 44ZM22 45L22 47L23 47L23 45ZM35 45L35 46L36 46L36 48L40 48L40 47L42 47L42 46L41 46L41 45L40 45L40 47L38 47L38 46L36 46L36 45ZM43 45L43 46L44 46L44 47L45 47L45 45ZM11 47L11 48L10 48L10 49L11 49L11 48L12 48L12 47ZM48 47L48 49L49 49L49 47ZM0 0L0 7L7 7L7 0ZM1 1L1 6L6 6L6 1ZM2 2L2 5L5 5L5 2ZM42 0L42 7L49 7L49 0ZM43 1L43 6L48 6L48 1ZM44 2L44 5L47 5L47 2ZM0 42L0 49L7 49L7 42ZM1 43L1 48L6 48L6 43ZM2 44L2 47L5 47L5 44Z" fill="#000000"/></g></g></svg>
